<svg xmlns="http://www.w3.org/2000/svg" viewBox="0 0 64 64" role="img" aria-labelledby="bolt-11-loader-title">
  <title id="bolt-11-loader-title">Sol loader mark</title>
  <g fill="none" stroke="#fff" stroke-width="5.1" stroke-linecap="round" stroke-linejoin="round"><path d="M44.99 44.35L44.08 45.09L42.61 45.13L40.93 44.66L39.43 44.15L38.34 44.06L37.65 44.71L37.17 46.06L36.64 47.71L35.86 49.12L34.80 49.77L33.59 49.45L32.42 48.34L31.40 46.93L30.54 45.82L29.68 45.43L28.66 45.87L27.38 46.83L25.93 47.78L24.52 48.19L23.44 47.73L22.85 46.47L22.71 44.76L22.75 43.11L22.58 41.92L21.87 41.35L20.55 41.25L18.84 41.28L17.19 41.06L16.09 40.36L15.84 39.18L16.40 37.74L17.41 36.31L18.29 35.09L18.56 34.12L17.99 33.28L16.76 32.39L15.36 31.33L14.39 30.14L14.29 28.94L15.15 27.94L16.66 27.22L18.29 26.72L19.50 26.23L19.97 25.46L19.76 24.26L19.21 22.69L18.83 21.03L19.01 19.65L19.92 18.91L21.39 18.87L23.07 19.34L24.57 19.85L25.66 19.94L26.35 19.29L26.83 17.94L27.36 16.29L28.14 14.88L29.20 14.23L30.41 14.55L31.58 15.66L32.60 17.07L33.46 18.18L34.32 18.57L35.34 18.13L36.62 17.17L38.07 16.22L39.48 15.81L40.56 16.27L41.15 17.53L41.29 19.24L41.25 20.89L41.42 22.08L42.13 22.65L43.45 22.75L45.16 22.72L46.81 22.94L47.91 23.64L48.16 24.82L47.60 26.26L46.59 27.69L45.71 28.91L45.44 29.88L46.01 30.72L47.24 31.61L48.64 32.67L49.61 33.86L49.71 35.06L48.85 36.06L47.34 36.78L45.71 37.28L44.50 37.77L44.03 38.54L44.24 39.74L44.79 41.31L45.17 42.97Z"/></g><g fill="#fff"><path d="M35.10 38.58L34.83 39.19L34.51 39.84L34.11 40.47L33.63 41.03L33.08 41.45L32.47 41.70L31.83 41.75L31.20 41.60L30.62 41.25L30.10 40.75L29.67 40.14L29.31 39.50L29.02 38.86L28.76 38.29L28.51 37.82L28.21 37.46L27.84 37.23L27.38 37.08L26.82 37.00L26.17 36.93L25.46 36.84L24.74 36.67L24.05 36.41L23.45 36.04L22.99 35.55L22.71 34.98L22.62 34.34L22.73 33.68L23.02 33.02L23.44 32.41L23.94 31.86L24.45 31.37L24.93 30.94L25.32 30.55L25.59 30.16L25.73 29.75L25.75 29.28L25.67 28.74L25.54 28.12L25.40 27.42L25.32 26.69L25.33 25.94L25.47 25.24L25.76 24.63L26.19 24.16L26.75 23.84L27.40 23.71L28.11 23.75L28.82 23.93L29.51 24.22L30.14 24.56L30.71 24.89L31.22 25.16L31.68 25.32L32.12 25.36L32.56 25.25L33.04 25.03L33.58 24.72L34.18 24.38L34.85 24.06L35.56 23.82L36.27 23.71L36.95 23.76L37.56 23.99L38.05 24.39L38.41 24.94L38.62 25.61L38.69 26.34L38.65 27.08L38.53 27.80L38.39 28.46L38.28 29.04L38.25 29.54L38.32 29.97L38.53 30.37L38.87 30.76L39.31 31.17L39.82 31.62L40.33 32.14L40.80 32.73L41.15 33.37L41.35 34.03L41.36 34.68L41.17 35.29L40.79 35.82L40.25 36.25L39.59 36.56L38.88 36.77L38.15 36.89L37.47 36.97L36.87 37.04L36.36 37.15L35.95 37.34L35.63 37.64L35.36 38.05Z"/></g>
</svg>
