<svg xmlns="http://www.w3.org/2000/svg" viewBox="0 0 64 64" role="img" aria-labelledby="switch-42-title" overflow="visible">
  <title id="switch-42-title">Ilya</title>
  <defs>
    <linearGradient id="switch-42-bg" x1="32" y1="1" x2="32" y2="63" gradientUnits="userSpaceOnUse">
      <stop stop-color="#6554E3"/>
      <stop offset=".48" stop-color="#6554E3" stop-opacity=".92"/>
      <stop offset="1" stop-color="#A192F4"/>
    </linearGradient>
    <radialGradient id="switch-42-top-light" cx="0" cy="0" r="1" gradientTransform="translate(20 4) rotate(65) scale(38 48)" gradientUnits="userSpaceOnUse">
      <stop stop-color="#fff" stop-opacity=".26"/>
      <stop offset="1" stop-color="#fff" stop-opacity="0"/>
    </radialGradient>
    <radialGradient id="switch-42-bottom-light" cx="0" cy="0" r="1" gradientTransform="translate(30 65) rotate(-87) scale(36 49)" gradientUnits="userSpaceOnUse">
      <stop stop-color="#c8c0f9" stop-opacity=".46"/>
      <stop offset="1" stop-color="#A192F4" stop-opacity="0"/>
    </radialGradient>
    <linearGradient id="switch-42-edge" x1="11" y1="5" x2="55" y2="60" gradientUnits="userSpaceOnUse">
      <stop stop-color="#fff" stop-opacity=".74"/>
      <stop offset=".28" stop-color="#fff" stop-opacity=".12"/>
      <stop offset=".72" stop-color="#6554E3" stop-opacity=".2"/>
      <stop offset="1" stop-color="#EAF2FF" stop-opacity=".62"/>
    </linearGradient>
    <linearGradient id="switch-42-glyph" x1="25" y1="15" x2="38" y2="50" gradientUnits="userSpaceOnUse">
      <stop stop-color="#fff"/>
      <stop offset=".42" stop-color="#F9FBFF"/>
      <stop offset=".76" stop-color="#eae7fd"/>
      <stop offset="1" stop-color="#d8d1fa"/>
    </linearGradient>
    <linearGradient id="switch-42-glyph-gloss" x1="26" y1="15" x2="34" y2="42" gradientUnits="userSpaceOnUse">
      <stop stop-color="#fff" stop-opacity=".95"/>
      <stop offset=".48" stop-color="#fff" stop-opacity=".32"/>
      <stop offset="1" stop-color="#fff" stop-opacity="0"/>
    </linearGradient>
    <radialGradient id="switch-42-halo" cx="0" cy="0" r="1" gradientTransform="translate(31 31) scale(25)" gradientUnits="userSpaceOnUse">
      <stop stop-color="#fff" stop-opacity=".19"/>
      <stop offset="1" stop-color="#fff" stop-opacity="0"/>
    </radialGradient>
    <filter id="switch-42-tile-shadow" x="-16%" y="-14%" width="132%" height="140%" color-interpolation-filters="sRGB">
      <feDropShadow dx="0" dy="1.4" stdDeviation="1.4" flood-color="#383681" flood-opacity=".42"/>
      <feDropShadow dx="-.35" dy="-.45" stdDeviation=".38" flood-color="#fff" flood-opacity=".4"/>
    </filter>
    <filter id="switch-42-material" x="-28%" y="-28%" width="156%" height="165%" color-interpolation-filters="sRGB">
      <feDropShadow dx="0" dy="1.4" stdDeviation=".88" flood-color="#383681" flood-opacity=".64"/>
      <feDropShadow dx="-.55" dy="-.7" stdDeviation=".48" flood-color="#fff" flood-opacity=".95"/>
      <feDropShadow dx=".3" dy=".45" stdDeviation=".34" flood-color="#B7CBF5" flood-opacity=".7"/>
    </filter>
    <clipPath id="switch-42-clip"><path d="M20 .8C8.5.8.8 8.5.8 20v24c0 11.5 7.7 19.2 19.2 19.2h24c11.5 0 19.2-7.7 19.2-19.2V20C63.2 8.5 55.5.8 44 .8H20Z"/></clipPath>
  </defs>
  <g filter="url(#switch-42-tile-shadow)">
    <path d="M20 .8C8.5.8.8 8.5.8 20v24c0 11.5 7.7 19.2 19.2 19.2h24c11.5 0 19.2-7.7 19.2-19.2V20C63.2 8.5 55.5.8 44 .8H20Z" fill="url(#switch-42-bg)"/>
    <path d="M20 .8C8.5.8.8 8.5.8 20v24c0 11.5 7.7 19.2 19.2 19.2h24c11.5 0 19.2-7.7 19.2-19.2V20C63.2 8.5 55.5.8 44 .8H20Z" fill="url(#switch-42-top-light)"/>
    <path d="M20 .8C8.5.8.8 8.5.8 20v24c0 11.5 7.7 19.2 19.2 19.2h24c11.5 0 19.2-7.7 19.2-19.2V20C63.2 8.5 55.5.8 44 .8H20Z" fill="url(#switch-42-bottom-light)"/>
    <path d="M20 .8C8.5.8.8 8.5.8 20v24c0 11.5 7.7 19.2 19.2 19.2h24c11.5 0 19.2-7.7 19.2-19.2V20C63.2 8.5 55.5.8 44 .8H20Z" fill="none" stroke="url(#switch-42-edge)" stroke-width="1.45"/>
    <path d="M8 42c10 9 37 11 50-2v8c-2 9-7 14-18 15H21C10 62 4 55 2 46l6-4Z" fill="#D7E5FF" opacity=".1" clip-path="url(#switch-42-clip)"/>
  </g>
  <circle cx="32" cy="32" r="25" fill="url(#switch-42-halo)"/>
  <g filter="url(#switch-42-material)"><g fill="url(#switch-42-glyph)"><ellipse cx="32" cy="20.2" rx="5.10" ry="9.50" transform="rotate(294.00 32 32)"/><ellipse cx="32" cy="20.2" rx="5.10" ry="9.50" transform="rotate(345.43 32 32)"/><ellipse cx="32" cy="20.2" rx="5.10" ry="9.50" transform="rotate(396.86 32 32)"/><ellipse cx="32" cy="20.2" rx="5.10" ry="9.50" transform="rotate(448.29 32 32)"/><ellipse cx="32" cy="20.2" rx="5.10" ry="9.50" transform="rotate(499.71 32 32)"/><ellipse cx="32" cy="20.2" rx="5.10" ry="9.50" transform="rotate(551.14 32 32)"/><ellipse cx="32" cy="20.2" rx="5.10" ry="9.50" transform="rotate(602.57 32 32)"/></g><g fill="url(#switch-42-glyph)"><path d="M38.50 32.00L38.97 32.46L39.31 32.96L39.43 33.48L39.30 33.96L38.94 34.36L38.39 34.65L37.77 34.84L37.15 34.98L36.64 35.10L36.29 35.29L36.10 35.60L36.05 36.05L36.05 36.62L36.04 37.27L35.95 37.91L35.73 38.45L35.36 38.81L34.88 38.94L34.32 38.84L33.76 38.55L33.23 38.16L32.76 37.78L32.36 37.50L32.00 37.40L31.64 37.50L31.24 37.78L30.77 38.16L30.24 38.55L29.68 38.84L29.12 38.94L28.64 38.81L28.27 38.45L28.05 37.91L27.96 37.27L27.95 36.62L27.95 36.05L27.90 35.60L27.71 35.29L27.36 35.10L26.85 34.98L26.23 34.84L25.61 34.65L25.06 34.36L24.70 33.96L24.57 33.48L24.69 32.96L25.03 32.46L25.50 32.00L26.00 31.61L26.42 31.27L26.68 30.94L26.75 30.59L26.63 30.18L26.38 29.67L26.11 29.09L25.89 28.47L25.83 27.88L25.98 27.38L26.33 27.03L26.85 26.85L27.48 26.85L28.13 26.96L28.73 27.10L29.23 27.20L29.61 27.15L29.90 26.93L30.14 26.53L30.39 26.00L30.69 25.41L31.06 24.89L31.51 24.53L32.00 24.40L32.49 24.53L32.94 24.89L33.31 25.41L33.61 26.00L33.86 26.53L34.10 26.93L34.39 27.15L34.77 27.20L35.27 27.10L35.87 26.96L36.52 26.85L37.15 26.85L37.67 27.03L38.02 27.38L38.17 27.88L38.11 28.47L37.89 29.09L37.62 29.67L37.37 30.18L37.25 30.59L37.32 30.94L37.58 31.27L38.00 31.61Z"/></g></g>
  <g opacity=".66" transform="translate(-.35 -.52)"><g fill="url(#switch-42-glyph-gloss)"><ellipse cx="32" cy="20.2" rx="5.10" ry="9.50" transform="rotate(294.00 32 32)"/><ellipse cx="32" cy="20.2" rx="5.10" ry="9.50" transform="rotate(345.43 32 32)"/><ellipse cx="32" cy="20.2" rx="5.10" ry="9.50" transform="rotate(396.86 32 32)"/><ellipse cx="32" cy="20.2" rx="5.10" ry="9.50" transform="rotate(448.29 32 32)"/><ellipse cx="32" cy="20.2" rx="5.10" ry="9.50" transform="rotate(499.71 32 32)"/><ellipse cx="32" cy="20.2" rx="5.10" ry="9.50" transform="rotate(551.14 32 32)"/><ellipse cx="32" cy="20.2" rx="5.10" ry="9.50" transform="rotate(602.57 32 32)"/></g><g fill="url(#switch-42-glyph-gloss)"><path d="M38.50 32.00L38.97 32.46L39.31 32.96L39.43 33.48L39.30 33.96L38.94 34.36L38.39 34.65L37.77 34.84L37.15 34.98L36.64 35.10L36.29 35.29L36.10 35.60L36.05 36.05L36.05 36.62L36.04 37.27L35.95 37.91L35.73 38.45L35.36 38.81L34.88 38.94L34.32 38.84L33.76 38.55L33.23 38.16L32.76 37.78L32.36 37.50L32.00 37.40L31.64 37.50L31.24 37.78L30.77 38.16L30.24 38.55L29.68 38.84L29.12 38.94L28.64 38.81L28.27 38.45L28.05 37.91L27.96 37.27L27.95 36.62L27.95 36.05L27.90 35.60L27.71 35.29L27.36 35.10L26.85 34.98L26.23 34.84L25.61 34.65L25.06 34.36L24.70 33.96L24.57 33.48L24.69 32.96L25.03 32.46L25.50 32.00L26.00 31.61L26.42 31.27L26.68 30.94L26.75 30.59L26.63 30.18L26.38 29.67L26.11 29.09L25.89 28.47L25.83 27.88L25.98 27.38L26.33 27.03L26.85 26.85L27.48 26.85L28.13 26.96L28.73 27.10L29.23 27.20L29.61 27.15L29.90 26.93L30.14 26.53L30.39 26.00L30.69 25.41L31.06 24.89L31.51 24.53L32.00 24.40L32.49 24.53L32.94 24.89L33.31 25.41L33.61 26.00L33.86 26.53L34.10 26.93L34.39 27.15L34.77 27.20L35.27 27.10L35.87 26.96L36.52 26.85L37.15 26.85L37.67 27.03L38.02 27.38L38.17 27.88L38.11 28.47L37.89 29.09L37.62 29.67L37.37 30.18L37.25 30.59L37.32 30.94L37.58 31.27L38.00 31.61Z"/></g></g>
</svg>
